<svg width="1800" height="1200" viewBox="0 0 1800 1200" fill="none" xmlns="http://www.w3.org/2000/svg">
<g id="Frame 6" clip-path="url(#clip0)">
<rect width="1800" height="1200" fill="#F8F8F8"/>
<path id="onda3" d="M2628.89 1813.14C2610.03 1825.06 2583.4 1829.81 2558.38 1835.09C2356.72 1877.59 2195.09 1979.43 2080 2094.83C2031.22 2143.7 1965.77 2203.25 1877.59 2193.4C1830.2 2188.1 1795.14 2163.36 1756.43 2145.09C1675.36 2106.75 1565.52 2095.03 1469.04 2114.46C1359.26 2136.55 1257.16 2196.56 1145.82 2179.21C1077.28 2168.51 1028.25 2130.61 986.069 2094.13C920.312 2037.21 858.664 1978.43 801.127 1917.78C762.564 1877.13 725.005 1833.85 719.748 1786.13C715.111 1744.11 736.004 1702.73 756.622 1662.62C774.66 1627.58 793.431 1591.65 829.92 1563.16C853.745 1544.57 884.561 1529.65 904.006 1509.05C949.678 1460.68 919.95 1399.31 899.746 1344.47C852.324 1215.05 868.046 1075.98 944.127 951.797C1060.85 761.305 1308.14 614.757 1439.9 428.278C1496.56 348.099 1531.41 261.112 1604.64 186.692C1646.33 144.761 1697.41 108.597 1755.56 79.8286C1869.46 23.064 2015.04 -8.35108 2157.87 -0.861195C2300.7 6.62869 2438.68 54.2646 2519.92 130.238C2606.89 211.57 2623.89 315.087 2676.47 408.021C2730.8 503.987 2823.47 588.983 2881.69 683.993C2928.65 760.891 2952.08 844.81 2950.26 929.591C2948.44 1014.37 2921.41 1097.87 2871.17 1173.94C2802.33 1278.47 2640.2 1385.22 2628.93 1501.08C2620.99 1583.61 2732.2 1747.86 2628.89 1813.14Z" fill="#8C92E8"/>
<path id="onda2" d="M2663.24 1813.14C2644.38 1825.06 2617.76 1829.81 2592.73 1835.09C2391.07 1877.59 2229.44 1979.43 2114.36 2094.83C2065.58 2143.7 2000.12 2203.25 1911.95 2193.4C1864.56 2188.1 1829.5 2163.36 1790.78 2145.09C1709.72 2106.75 1599.88 2095.03 1503.39 2114.46C1393.61 2136.55 1291.52 2196.56 1180.17 2179.21C1111.64 2168.51 1062.6 2130.61 1020.42 2094.13C954.666 2037.21 893.018 1978.43 835.481 1917.78C796.918 1877.13 759.359 1833.85 754.102 1786.13C749.465 1744.11 770.358 1702.73 790.976 1662.62C809.014 1627.58 827.785 1591.65 864.274 1563.16C888.099 1544.57 918.915 1529.65 938.36 1509.05C984.032 1460.68 954.304 1399.31 934.1 1344.47C886.678 1215.05 902.4 1075.98 978.481 951.797C1095.2 761.305 1342.49 614.757 1474.25 428.278C1530.92 348.099 1565.76 261.112 1638.99 186.692C1680.69 144.761 1731.76 108.597 1789.91 79.8286C1903.82 23.064 2049.39 -8.35108 2192.22 -0.861195C2335.05 6.62869 2473.03 54.2646 2554.28 130.238C2641.24 211.57 2658.24 315.087 2710.83 408.021C2765.15 503.987 2857.82 588.983 2916.04 683.993C2963 760.891 2986.43 844.81 2984.61 929.591C2982.79 1014.37 2955.77 1097.87 2905.52 1173.94C2836.68 1278.47 2674.56 1385.22 2663.28 1501.08C2655.35 1583.61 2766.55 1747.86 2663.24 1813.14Z" fill="#575DBC"/>
<path id="onda1" d="M2692.23 1819.58C2673.37 1831.5 2646.74 1836.25 2621.72 1841.53C2420.06 1884.03 2258.43 1985.88 2143.34 2101.27C2094.57 2150.14 2029.11 2209.69 1940.93 2199.84C1893.54 2194.54 1858.48 2169.8 1819.77 2151.53C1738.7 2113.19 1628.86 2101.47 1532.38 2120.9C1422.6 2142.99 1320.5 2203.01 1209.16 2185.65C1140.62 2174.95 1091.59 2137.05 1049.41 2100.57C983.652 2043.65 922.005 1984.87 864.467 1924.22C825.904 1883.57 788.345 1840.29 783.089 1792.57C778.452 1750.55 799.344 1709.17 819.962 1669.06C838 1634.02 856.772 1598.09 893.26 1569.6C917.086 1551.01 947.901 1536.09 967.346 1515.5C1013.02 1467.12 983.29 1405.75 963.086 1350.91C915.664 1221.49 931.386 1082.42 1007.47 958.238C1124.19 767.746 1371.48 621.198 1503.24 434.719C1559.9 354.54 1594.75 267.553 1667.98 193.133C1709.67 151.202 1760.75 115.038 1818.9 86.2697C1932.8 29.5051 2078.38 -1.90992 2221.21 5.57997C2364.04 13.0698 2502.02 60.7058 2583.26 136.679C2670.23 218.011 2687.23 321.528 2739.81 414.462C2794.14 510.429 2886.81 595.424 2945.03 690.434C2991.99 767.332 3015.42 851.251 3013.6 936.032C3011.78 1020.81 2984.75 1104.31 2934.51 1180.38C2865.67 1284.91 2703.54 1391.66 2692.27 1507.52C2684.33 1590.05 2795.54 1754.3 2692.23 1819.58Z" fill="url(#paint0_linear)"/>
</g>
<defs>
<linearGradient id="paint0_linear" x1="2357.82" y1="1183.67" x2="1512.39" y2="457.404" gradientUnits="userSpaceOnUse">
<stop offset="0.203125" stop-color="#01032F"/>
<stop offset="1" stop-color="#1F237D" stop-opacity="0.65"/>
</linearGradient>
<clipPath id="clip0">
<rect width="1800" height="1200" fill="white"/>
</clipPath>
</defs>
</svg>
