<svg width="902" height="541" viewBox="0 0 902 541" fill="none" xmlns="http://www.w3.org/2000/svg">
<g id="undraw_online_organizer_ofxm 2" clip-path="url(#clip0)">
<path id="mato_esq" d="M247.304 540.29L223.885 474.717C223.885 474.717 249.645 487.598 250.816 503.991C250.816 503.991 244.962 422.025 233.252 404.461C233.252 404.461 251.987 406.803 273.064 498.136C273.064 498.136 276.577 392.751 244.962 362.307C244.962 362.307 288.287 397.435 291.799 473.546V540.29H247.304Z" fill="#F2F2F2"/>
<path id="mato_dir" d="M686.496 540.29L680.865 524.524C680.865 524.524 687.059 527.621 687.34 531.562C687.34 531.562 685.933 511.854 683.117 507.631C683.117 507.631 687.622 508.194 692.689 530.155C692.689 530.155 693.534 504.816 685.932 497.496C685.932 497.496 696.349 505.942 697.194 524.242V540.29L686.496 540.29Z" fill="#F2F2F2"/>
<path id="Vector" d="M582.179 404.685C639.034 404.685 685.125 358.595 685.125 301.739C685.125 244.883 639.034 198.793 582.179 198.793C525.323 198.793 479.232 244.883 479.232 301.739C479.232 358.595 525.323 404.685 582.179 404.685Z" fill="#F2F2F2"/>
<path id="Vector_2" d="M901.667 7.80969H658.855V142.705H901.667V7.80969Z" fill="#F2F2F2"/>
<path id="caule" d="M624.171 540.66C624.008 540.394 620.166 533.979 618.835 520.659C617.613 508.438 618.398 487.839 629.081 459.106C649.32 404.671 624.417 360.751 624.163 360.313L625.391 359.6C625.456 359.711 631.882 370.909 635.678 388.74C640.693 412.381 638.867 436.961 630.413 459.601C610.209 513.942 625.229 539.667 625.383 539.921L624.171 540.66Z" fill="#3F3D56"/>
<path id="flor1" d="M616.257 357.117C621.354 357.117 625.487 352.985 625.487 347.887C625.487 342.79 621.354 338.657 616.257 338.657C611.16 338.657 607.027 342.79 607.027 347.887C607.027 352.985 611.16 357.117 616.257 357.117Z" fill="#1F237D"/>
<path id="flor2" d="M645.366 391.196C650.464 391.196 654.596 387.063 654.596 381.966C654.596 376.868 650.464 372.736 645.366 372.736C640.269 372.736 636.137 376.868 636.137 381.966C636.137 387.063 640.269 391.196 645.366 391.196Z" fill="#3F3D56"/>
<path id="flor3" d="M625.487 413.915C630.584 413.915 634.717 409.783 634.717 404.685C634.717 399.588 630.584 395.455 625.487 395.455C620.39 395.455 616.257 399.588 616.257 404.685C616.257 409.783 620.39 413.915 625.487 413.915Z" fill="#1F237D"/>
<path id="flor4" d="M649.626 433.084C654.724 433.084 658.856 428.952 658.856 423.854C658.856 418.757 654.724 414.625 649.626 414.625C644.529 414.625 640.396 418.757 640.396 423.854C640.396 428.952 644.529 433.084 649.626 433.084Z" fill="#1F237D"/>
<path id="flor5" d="M618.387 462.903C623.484 462.903 627.617 458.771 627.617 453.673C627.617 448.576 623.484 444.444 618.387 444.444C613.29 444.444 609.157 448.576 609.157 453.673C609.157 458.771 613.29 462.903 618.387 462.903Z" fill="#3F3D56"/>
<path id="folha_dir" d="M629.747 541C629.747 541 620.517 518.281 648.206 501.241L629.747 541Z" fill="#3F3D56"/>
<path id="folha_esq" d="M618.396 540.588C618.396 540.588 614.195 516.428 581.684 516.635L618.396 540.588Z" fill="#3F3D56"/>
<path id="Vector_3" d="M901.312 0H659.21V12.0696H901.312V0Z" fill="#10134E"/>
<g id="Group 6">
<path id="Vector_4" d="M572.239 7.80969H329.428V142.705H572.239V7.80969Z" fill="#F2F2F2"/>
<path id="Vector_5" d="M572.594 0H329.783V12.0696H572.594V0Z" fill="#10134E"/>
<path id="Vector_6" d="M391.906 30.8839H347.887V62.1228H391.906V30.8839Z" fill="white"/>
<path id="Vector_7" d="M553.78 30.8839H432.374V34.4338H553.78V30.8839Z" fill="white"/>
<path id="Vector_8" d="M553.78 45.0834H432.374V48.6332H553.78V45.0834Z" fill="white"/>
<path id="Vector_9" d="M553.78 59.2828H432.374V62.8327H553.78V59.2828Z" fill="white"/>
</g>
<path id="Vector_10" d="M721.333 30.8839H677.315V62.1228H721.333V30.8839Z" fill="white"/>
<path id="Vector_11" d="M883.207 30.8839H761.802V34.4338H883.207V30.8839Z" fill="white"/>
<path id="Vector_12" d="M883.207 45.0834H761.802V48.6332H883.207V45.0834Z" fill="white"/>
<path id="Vector_13" d="M883.207 59.2828H761.802V62.8327H883.207V59.2828Z" fill="white"/>
<g id="caixa1">
<path id="Vector_14" d="M242.811 7.80969H0V142.705H242.811V7.80969Z" fill="#F2F2F2"/>
<path id="Vector_15" d="M242.456 0H0.35498V12.0696H242.456V0Z" fill="#10134E"/>
<path id="Vector_16" d="M62.4778 30.8839H18.4595V62.1228H62.4778V30.8839Z" fill="white"/>
<path id="Vector_17" d="M224.352 30.8839H102.946V34.4338H224.352V30.8839Z" fill="white"/>
<path id="Vector_18" d="M224.352 45.0834H102.946V48.6332H224.352V45.0834Z" fill="white"/>
<path id="Vector_19" d="M224.352 59.2828H102.946V62.8327H224.352V59.2828Z" fill="white"/>
<path id="Vector_20" d="M40.4685 61.0576C48.3107 61.0576 54.668 54.7003 54.668 46.8582C54.668 39.016 48.3107 32.6587 40.4685 32.6587C32.6264 32.6587 26.269 39.016 26.269 46.8582C26.269 54.7003 32.6264 61.0576 40.4685 61.0576Z" fill="#1F237D"/>
</g>
<path id="Vector_21" d="M699.324 61.0576C707.166 61.0576 713.523 54.7003 713.523 46.8582C713.523 39.016 707.166 32.6587 699.324 32.6587C691.482 32.6587 685.125 39.016 685.125 46.8582C685.125 54.7003 691.482 61.0576 699.324 61.0576Z" fill="#1F237D"/>
<path id="Vector_22" d="M113.434 142.705H112.014V146.965H113.434V142.705Z" fill="#3F3D56"/>
<path id="Vector_23" d="M113.434 317.358H112.014V308.839H113.434V317.358ZM113.434 300.319H112.014V291.799H113.434V300.319ZM113.434 283.28H112.014V274.76H113.434V283.28ZM113.434 266.24H112.014V257.72H113.434V266.24ZM113.434 249.201H112.014V240.681H113.434V249.201ZM113.434 232.161H112.014V223.642H113.434V232.161ZM113.434 215.122H112.014V206.602H113.434V215.122ZM113.434 198.083H112.014V189.563H113.434V198.083ZM113.434 181.043H112.014V172.524H113.434V181.043ZM113.434 164.004H112.014V155.484H113.434V164.004Z" fill="#3F3D56"/>
<path id="Vector_24" d="M116.983 330.848H112.014V325.878H113.433V329.427H116.983V330.848Z" fill="#3F3D56"/>
<path id="Vector_25" d="M767.443 330.848H758.885V329.428H767.443V330.848ZM750.326 330.848H741.767V329.428H750.326V330.848ZM733.209 330.848H724.65V329.428H733.209V330.848ZM716.091 330.848H707.533V329.428H716.091V330.848ZM698.974 330.848H690.415V329.428H698.974V330.848ZM681.856 330.848H673.298V329.428H681.856V330.848ZM664.74 330.848H656.18V329.428H664.74V330.848ZM647.622 330.848H639.063V329.428H647.622V330.848ZM630.505 330.848H621.946V329.428H630.505V330.848ZM613.387 330.848H604.829V329.428H613.387L613.387 330.848ZM596.27 330.848H587.711V329.428H596.27V330.848ZM579.152 330.848H570.594V329.428H579.152V330.848ZM562.035 330.848H553.476V329.428H562.035V330.848ZM544.918 330.848H536.359V329.428H544.918V330.848ZM527.801 330.848H519.241V329.428H527.801V330.848ZM510.683 330.848H502.124V329.428H510.683V330.848ZM493.566 330.848H485.007V329.428H493.566V330.848ZM476.448 330.848H467.89V329.428H476.448V330.848ZM459.331 330.848H450.772V329.428H459.331V330.848ZM442.214 330.848H433.655V329.428H442.214V330.848ZM425.096 330.848H416.537V329.428H425.096V330.848ZM407.979 330.848H399.42V329.428H407.979V330.848ZM390.862 330.848H382.303V329.428H390.862V330.848ZM373.744 330.848H365.185V329.428H373.744V330.848ZM356.627 330.848H348.068V329.428H356.627V330.848ZM339.509 330.848H330.951V329.428H339.509V330.848ZM322.392 330.848H313.833V329.428H322.392V330.848ZM305.275 330.848H296.716V329.428H305.275V330.848ZM288.157 330.848H279.598V329.428H288.157V330.848ZM271.04 330.848H262.481V329.428H271.04V330.848ZM253.923 330.848H245.364V329.428H253.923V330.848ZM236.805 330.848H228.247V329.428H236.805V330.848ZM219.688 330.848H211.129V329.428H219.688V330.848ZM202.57 330.848H194.012V329.428H202.57V330.848ZM185.453 330.848H176.895V329.428H185.453V330.848ZM168.336 330.848H159.777V329.428H168.336V330.848ZM151.218 330.848H142.66V329.428H151.218V330.848ZM134.101 330.848H125.542V329.428H134.101L134.101 330.848Z" fill="#3F3D56"/>
<path id="Vector_26" d="M780.972 330.848H776.002V329.427H779.551V325.878H780.972V330.848Z" fill="#3F3D56"/>
<path id="Vector_27" d="M780.971 317.358H779.551V308.839H780.971V317.358ZM780.971 300.319H779.551V291.799H780.971V300.319ZM780.971 283.28H779.551V274.76H780.971V283.28ZM780.971 266.24H779.551V257.72H780.971V266.24ZM780.971 249.201H779.551V240.681H780.971V249.201ZM780.971 232.161H779.551V223.642H780.971V232.161ZM780.971 215.122H779.551V206.602H780.971V215.122ZM780.971 198.083H779.551V189.563H780.971V198.083ZM780.971 181.043H779.551V172.524H780.971V181.043ZM780.971 164.004H779.551V155.484H780.971V164.004Z" fill="#3F3D56"/>
<path id="Vector_28" d="M780.971 142.705H779.551V146.965H780.971V142.705Z" fill="#3F3D56"/>
<path id="Vector_29" d="M572.239 287.539H329.428V540.29H572.239V287.539Z" fill="#10134E"/>
<path id="Vector_30" d="M391.906 320.553H347.887V351.792H391.906V320.553Z" fill="white"/>
<path id="Vector_31" d="M553.78 320.553H432.374V324.103H553.78V320.553Z" fill="white"/>
<path id="Vector_32" d="M553.78 334.753H432.374V338.303H553.78V334.753Z" fill="white"/>
<path id="Vector_33" d="M553.78 348.952H432.374V352.502H553.78V348.952Z" fill="white"/>
<path id="Vector_34" d="M391.906 433.084H347.887V464.323H391.906V433.084Z" fill="white"/>
<path id="Vector_35" d="M553.78 433.084H432.374V436.634H553.78V433.084Z" fill="white"/>
<path id="Vector_36" d="M553.78 447.283H432.374V450.833H553.78V447.283Z" fill="white"/>
<path id="Vector_37" d="M553.78 461.483H432.374V465.033H553.78V461.483Z" fill="white"/>
<path id="Vector_38" d="M370.083 344.073L355.015 323.984L358.585 321.307L370.859 337.673L402.146 312.334L404.971 315.787L370.083 344.073Z" fill="#1F237D"/>
<path id="Vector_39" d="M370.083 455.54L355.015 435.45L358.585 432.773L370.859 449.139L402.146 423.799L404.971 427.253L370.083 455.54Z" fill="#1F237D"/>
<path id="Vector_40" d="M883.207 539.58H6.38965V541H883.207V539.58Z" fill="#3F3D56"/>
<path id="Vector_41" d="M481.396 150.514C481.396 150.514 504.825 140.305 515.83 151.09C526.834 161.874 486.366 158.324 481.396 150.514Z" fill="#3F3D56"/>
<path id="cabelo_grande" d="M521.852 102.098C513.978 88.7937 498.401 88.1737 498.401 88.1737C498.401 88.1737 483.222 86.2327 473.485 106.494C464.409 125.38 451.883 143.615 471.469 148.036L475.006 137.025L477.197 148.855C479.986 149.056 482.783 149.104 485.577 148.999C506.551 148.321 526.526 149.197 525.883 141.67C525.028 131.665 529.428 114.898 521.852 102.098Z" fill="#2F2E41"/>
<g id="pes">
<path id="Vector_42" d="M532.869 343.272C532.869 343.272 522.93 361.732 516.54 361.732C510.15 361.732 510.86 373.801 512.28 376.641C513.7 379.481 517.25 385.871 511.57 395.1C509.586 398.324 509.941 401.981 511.243 405.376C514.891 414.886 529.08 412.004 528.628 401.829C528.623 401.717 528.617 401.604 528.61 401.49C527.9 390.131 533.579 372.381 539.259 368.121C544.939 363.862 549.909 352.502 549.909 352.502L532.869 343.272Z" fill="#FFB8B8"/>
<path id="Vector_43" d="M464.712 339.012C464.712 339.012 474.651 357.472 481.041 357.472C487.431 357.472 486.721 369.541 485.301 372.381C483.881 375.221 480.331 381.611 486.011 390.841C487.995 394.064 487.64 397.721 486.338 401.116C482.69 410.626 468.501 407.745 468.953 397.569C468.958 397.457 468.964 397.344 468.972 397.23C469.682 385.871 464.002 368.121 458.322 363.862C452.642 359.602 447.672 348.242 447.672 348.242L464.712 339.012Z" fill="#FFB8B8"/>
</g>
<path id="Vector_44" d="M472.521 248.136L468.262 257.366C468.262 257.366 405.784 277.955 411.464 302.094C417.143 326.233 444.832 363.862 449.092 362.442C453.352 361.022 476.071 356.762 476.781 344.692C477.491 332.623 460.452 311.324 460.452 311.324L483.881 290.024L517.974 289.314L547.069 311.324C547.069 311.324 516.54 338.303 530.029 348.952C543.519 359.602 563.398 366.701 566.238 362.442C569.078 358.182 601.027 294.994 596.057 289.314C591.087 283.635 540.679 262.335 540.679 262.335L527.189 243.166L474.651 240.326L472.521 248.136Z" fill="#2F2E41"/>
<path id="Vector_45" d="M485.301 130.99C485.301 130.99 488.851 154.419 481.751 157.259C474.651 160.099 495.951 172.169 495.951 172.169H508.02L515.83 155.839C515.83 155.839 508.73 143.06 512.99 130.99C517.25 118.921 485.301 130.99 485.301 130.99Z" fill="#FFB8B8"/>
<path id="pescoco" opacity="0.1" d="M485.301 130.99C485.301 130.99 488.851 154.419 481.751 157.259C474.651 160.099 495.951 172.169 495.951 172.169H508.02L515.83 155.839C515.83 155.839 508.73 143.06 512.99 130.99C517.25 118.921 485.301 130.99 485.301 130.99Z" fill="black"/>
<path id="camisa_branca" d="M480.331 150.869C480.331 150.869 488.141 159.389 489.561 160.809C490.981 162.229 497.371 170.039 510.86 158.679C524.35 147.32 525.769 160.809 525.769 160.809V246.006C525.769 246.006 514.41 241.036 505.18 246.006C495.951 250.976 476.781 244.586 476.781 244.586L473.231 156.549L480.331 150.869Z" fill="white"/>
<g id="maos">
<path id="Vector_46" d="M478.201 286.474V293.574C478.201 293.574 474.651 309.904 486.011 309.194C497.371 308.484 490.271 289.314 490.271 289.314L489.561 282.925L478.201 286.474Z" fill="#FFB8B8"/>
<path id="Vector_47" d="M510.15 287.184C510.15 287.184 502.34 303.514 510.15 304.934C517.96 306.354 523.64 295.704 523.64 292.864C523.64 290.024 510.15 287.184 510.15 287.184Z" fill="#FFB8B8"/>
</g>
<g id="orelhas">
<path id="Vector_48" d="M520.445 124.245C521.229 124.245 521.865 122.974 521.865 121.406C521.865 119.837 521.229 118.566 520.445 118.566C519.661 118.566 519.025 119.837 519.025 121.406C519.025 122.974 519.661 124.245 520.445 124.245Z" fill="#FFB8B8"/>
<path id="Vector_49" d="M478.556 124.245C479.34 124.245 479.976 122.974 479.976 121.406C479.976 119.837 479.34 118.566 478.556 118.566C477.772 118.566 477.136 119.837 477.136 121.406C477.136 122.974 477.772 124.245 478.556 124.245Z" fill="#FFB8B8"/>
</g>
<g id="blazer">
<path id="Vector_50" d="M485.546 150.869C485.546 150.869 478.911 148.029 473.231 150.869C467.552 153.709 447.672 167.909 449.092 174.298C450.512 180.688 468.972 225.417 456.192 246.716C443.413 268.015 441.283 273.695 441.283 273.695L472.522 257.365C472.522 257.365 496.661 242.456 494.531 233.226C492.401 223.997 485.546 150.869 485.546 150.869Z" fill="#1F237D"/>
<path id="Vector_51" d="M513.708 150.869C513.708 150.869 528.609 152.289 529.319 153.709C530.029 155.129 551.683 161.164 550.263 167.554C548.843 173.944 529.319 231.096 537.839 241.746C546.358 252.396 560.558 267.305 555.588 268.725C550.618 270.145 542.099 266.595 533.579 268.725C525.059 270.855 505.18 253.106 507.31 233.936C509.44 214.767 507.327 155.839 513.708 150.869Z" fill="#1F237D"/>
<path id="Vector_52" d="M532.869 160.099C532.869 160.099 550.618 160.099 549.908 167.199C549.198 174.299 525.769 296.414 525.769 296.414C525.769 296.414 515.83 287.184 507.31 289.314L532.869 160.099Z" fill="#1F237D"/>
<path id="Vector_53" d="M464.002 162.229C464.002 162.229 446.252 165.779 446.252 176.429C446.252 187.078 471.812 289.314 475.361 289.314C478.911 289.314 492.401 287.184 492.401 283.635C492.401 280.085 464.002 162.229 464.002 162.229Z" fill="#1F237D"/>
<path id="Vector_54" opacity="0.2" d="M467.907 183.173L483.881 245.645C483.881 245.645 476.426 190.983 467.907 183.173Z" fill="black"/>
<path id="Vector_55" opacity="0.2" d="M530.041 174.395L513.885 256.073C513.885 256.073 519.049 179.107 530.041 174.395Z" fill="black"/>
</g>
<path id="rosto" d="M499.5 142.35C510.872 142.35 520.09 133.132 520.09 121.761C520.09 110.389 510.872 101.171 499.5 101.171C488.129 101.171 478.911 110.389 478.911 121.761C478.911 133.132 488.129 142.35 499.5 142.35Z" fill="#FFB8B8"/>
<path id="cabelo_testa" d="M518.371 100.815L502.981 92.7542L481.729 96.0514L477.333 115.472L488.278 115.051L491.336 107.916V114.933L496.386 114.739L499.317 103.38L501.15 115.472L519.104 115.106L518.371 100.815Z" fill="#2F2E41"/>
</g>
<defs>
<clipPath id="clip0">
<rect width="901.667" height="541" fill="white"/>
</clipPath>
</defs>
</svg>
